<?xml version="1.0" encoding="iso-8859-1"?>
<!-- Generator: Adobe Illustrator 18.0.0, SVG Export Plug-In . SVG Version: 6.00 Build 0)  -->
<!DOCTYPE svg PUBLIC "-//W3C//DTD SVG 1.1//EN" "http://www.w3.org/Graphics/SVG/1.1/DTD/svg11.dtd">
<svg version="1.1" id="Capa_1" xmlns="http://www.w3.org/2000/svg" xmlns:xlink="http://www.w3.org/1999/xlink" x="0px" y="0px"
	 viewBox="0 0 494.04 494.04" style="enable-background:new 0 0 494.04 494.04;" xml:space="preserve">
<g id="XMLID_350_">
	<path id="XMLID_354_" d="M247.024,69.989c-97.622,0-177.035,79.414-177.035,177.032c0,97.615,79.413,177.03,177.035,177.03
		c97.614,0,177.026-79.415,177.026-177.03C424.051,149.403,344.638,69.989,247.024,69.989z M279.956,366.259
		c0,5.767-4.678,10.446-10.453,10.446h-44.966c-5.775,0-10.454-4.68-10.454-10.446V231.733c0-5.765,4.678-10.445,10.454-10.445
		h44.966c5.775,0,10.453,4.68,10.453,10.445V366.259z M247.024,181.148c-22.163,0-40.145-17.971-40.145-40.142
		c0-22.168,17.981-40.14,40.145-40.14c22.156,0,40.136,17.972,40.136,40.14C287.16,163.177,269.18,181.148,247.024,181.148z"/>
	<path id="XMLID_351_" d="M247.024,0C110.602,0,0.001,110.597,0.001,247.021c0,136.422,110.601,247.019,247.023,247.019
		s247.015-110.597,247.015-247.019C494.039,110.597,383.447,0,247.024,0z M247.024,456.987
		c-115.781,0-209.965-94.192-209.965-209.965c0-115.777,94.184-209.969,209.965-209.969c115.772,0,209.966,94.192,209.966,209.969
		C456.99,362.795,362.796,456.987,247.024,456.987z"/>
</g>
<g>
</g>
<g>
</g>
<g>
</g>
<g>
</g>
<g>
</g>
<g>
</g>
<g>
</g>
<g>
</g>
<g>
</g>
<g>
</g>
<g>
</g>
<g>
</g>
<g>
</g>
<g>
</g>
<g>
</g>
</svg>
